<?xml version="1.0" encoding="UTF-8" standalone="no"?>
<!-- Created with Inkscape (http://www.inkscape.org/) -->

<svg
   width="981.13684"
   height="320.08972"
   viewBox="0 0 981.13684 320.08972"
   version="1.1"
   id="svg5"
   inkscape:version="1.2 (dc2aedaf03, 2022-05-15)"
   sodipodi:docname="Sprites.svg"
   inkscape:export-filename="Lander.svg"
   inkscape:export-xdpi="96"
   inkscape:export-ydpi="96"
   xmlns:inkscape="http://www.inkscape.org/namespaces/inkscape"
   xmlns:sodipodi="http://sodipodi.sourceforge.net/DTD/sodipodi-0.dtd"
   xmlns:xlink="http://www.w3.org/1999/xlink"
   xmlns="http://www.w3.org/2000/svg"
   xmlns:svg="http://www.w3.org/2000/svg">
  <sodipodi:namedview
     id="namedview7"
     pagecolor="#ffffff"
     bordercolor="#666666"
     borderopacity="1.0"
     inkscape:showpageshadow="2"
     inkscape:pageopacity="0.0"
     inkscape:pagecheckerboard="0"
     inkscape:deskcolor="#d1d1d1"
     inkscape:document-units="px"
     showgrid="false"
     inkscape:zoom="1"
     inkscape:cx="780"
     inkscape:cy="1441"
     inkscape:window-width="2560"
     inkscape:window-height="1009"
     inkscape:window-x="-8"
     inkscape:window-y="-8"
     inkscape:window-maximized="1"
     inkscape:current-layer="layer3">
    <inkscape:grid
       type="xygrid"
       id="grid132"
       dotted="false"
       snapvisiblegridlinesonly="true"
       empspacing="16"
       empcolor="#000000"
       empopacity="0.30196078"
       originx="0"
       originy="0" />
  </sodipodi:namedview>
  <defs
     id="defs2">
    <linearGradient
       inkscape:collect="always"
       id="linearGradient9342">
      <stop
         style="stop-color:#e60000;stop-opacity:1;"
         offset="0"
         id="stop9338" />
      <stop
         style="stop-color:#ff6e00;stop-opacity:1;"
         offset="0.5"
         id="stop9346" />
      <stop
         style="stop-color:#e50000;stop-opacity:1;"
         offset="1"
         id="stop9340" />
    </linearGradient>
    <color-profile
       name="Agfa-:-Swop-Standard"
       xlink:href="file:///C:/WINDOWS/system32/spool/drivers/color/RSWOP.icm"
       id="color-profile16400" />
    <linearGradient
       inkscape:collect="always"
       xlink:href="#linearGradient9342"
       id="linearGradient9344"
       x1="608.39557"
       y1="1522.1907"
       x2="608.39557"
       y2="1217.9688"
       gradientUnits="userSpaceOnUse" />
    <linearGradient
       inkscape:collect="always"
       xlink:href="#linearGradient9342"
       id="linearGradient16356"
       gradientUnits="userSpaceOnUse"
       x1="608.39557"
       y1="1522.1907"
       x2="608.39557"
       y2="1217.9688" />
    <linearGradient
       inkscape:collect="always"
       xlink:href="#linearGradient9342"
       id="linearGradient16358"
       gradientUnits="userSpaceOnUse"
       x1="608.39557"
       y1="1522.1907"
       x2="608.39557"
       y2="1217.9688" />
    <linearGradient
       inkscape:collect="always"
       xlink:href="#linearGradient9342"
       id="linearGradient16360"
       gradientUnits="userSpaceOnUse"
       x1="608.39557"
       y1="1522.1907"
       x2="608.39557"
       y2="1217.9688" />
    <linearGradient
       inkscape:collect="always"
       xlink:href="#linearGradient9342"
       id="linearGradient16362"
       gradientUnits="userSpaceOnUse"
       x1="608.39557"
       y1="1522.1907"
       x2="608.39557"
       y2="1217.9688" />
    <linearGradient
       inkscape:collect="always"
       xlink:href="#linearGradient9342"
       id="linearGradient16364"
       gradientUnits="userSpaceOnUse"
       x1="608.39557"
       y1="1522.1907"
       x2="608.39557"
       y2="1217.9688" />
    <linearGradient
       inkscape:collect="always"
       xlink:href="#linearGradient9342"
       id="linearGradient16366"
       gradientUnits="userSpaceOnUse"
       x1="608.39557"
       y1="1522.1907"
       x2="608.39557"
       y2="1217.9688" />
    <linearGradient
       inkscape:collect="always"
       xlink:href="#linearGradient9342"
       id="linearGradient16368"
       gradientUnits="userSpaceOnUse"
       x1="608.39557"
       y1="1522.1907"
       x2="608.39557"
       y2="1217.9688" />
    <linearGradient
       inkscape:collect="always"
       xlink:href="#linearGradient9342"
       id="linearGradient16370"
       gradientUnits="userSpaceOnUse"
       x1="608.39557"
       y1="1522.1907"
       x2="608.39557"
       y2="1217.9688" />
    <linearGradient
       inkscape:collect="always"
       xlink:href="#linearGradient9342"
       id="linearGradient16372"
       gradientUnits="userSpaceOnUse"
       x1="608.39557"
       y1="1522.1907"
       x2="608.39557"
       y2="1217.9688" />
    <linearGradient
       inkscape:collect="always"
       xlink:href="#linearGradient9342"
       id="linearGradient16374"
       gradientUnits="userSpaceOnUse"
       x1="608.39557"
       y1="1522.1907"
       x2="608.39557"
       y2="1217.9688" />
    <linearGradient
       inkscape:collect="always"
       xlink:href="#linearGradient9342"
       id="linearGradient16376"
       gradientUnits="userSpaceOnUse"
       x1="608.39557"
       y1="1522.1907"
       x2="608.39557"
       y2="1217.9688" />
    <linearGradient
       inkscape:collect="always"
       xlink:href="#linearGradient9342"
       id="linearGradient16378"
       gradientUnits="userSpaceOnUse"
       x1="608.39557"
       y1="1522.1907"
       x2="608.39557"
       y2="1217.9688" />
    <linearGradient
       inkscape:collect="always"
       xlink:href="#linearGradient9342"
       id="linearGradient16380"
       gradientUnits="userSpaceOnUse"
       x1="608.39557"
       y1="1522.1907"
       x2="608.39557"
       y2="1217.9688" />
    <linearGradient
       inkscape:collect="always"
       xlink:href="#linearGradient9342"
       id="linearGradient16382"
       gradientUnits="userSpaceOnUse"
       x1="608.39557"
       y1="1522.1907"
       x2="608.39557"
       y2="1217.9688" />
    <linearGradient
       inkscape:collect="always"
       xlink:href="#linearGradient9342"
       id="linearGradient16384"
       gradientUnits="userSpaceOnUse"
       x1="608.39557"
       y1="1522.1907"
       x2="608.39557"
       y2="1217.9688" />
    <linearGradient
       inkscape:collect="always"
       xlink:href="#linearGradient9342"
       id="linearGradient16386"
       gradientUnits="userSpaceOnUse"
       x1="608.39557"
       y1="1522.1907"
       x2="608.39557"
       y2="1217.9688" />
    <linearGradient
       inkscape:collect="always"
       xlink:href="#linearGradient9342"
       id="linearGradient16388"
       gradientUnits="userSpaceOnUse"
       x1="608.39557"
       y1="1522.1907"
       x2="608.39557"
       y2="1217.9688" />
    <linearGradient
       inkscape:collect="always"
       xlink:href="#linearGradient9342"
       id="linearGradient16390"
       gradientUnits="userSpaceOnUse"
       x1="608.39557"
       y1="1522.1907"
       x2="608.39557"
       y2="1217.9688" />
    <linearGradient
       inkscape:collect="always"
       xlink:href="#linearGradient9342"
       id="linearGradient16392"
       gradientUnits="userSpaceOnUse"
       x1="608.39557"
       y1="1522.1907"
       x2="608.39557"
       y2="1217.9688" />
  </defs>
  <g
     inkscape:groupmode="layer"
     id="layer3"
     inkscape:label="Title"
     transform="translate(-110.45276,-1213.4169)">
    <g
       aria-label="Red Planet
Rendezvous"
       id="text9284"
       style="font-size:96px;line-height:0;font-family:'Lucida Sans';-inkscape-font-specification:'Lucida Sans';text-align:center;letter-spacing:0px;text-anchor:middle;fill:url(#linearGradient9344);stroke:#000000;stroke-width:4">
      <path
         d="m 136.98053,1368 c -32.70369,-32.7037 -32.70369,-106.0463 0,-138.75 9.89949,-9.8995 28.17302,-2.1942 42,0 11.1657,1.7719 24.0903,2.6749 32.25,10.5 6.13763,5.8859 8.24958,15.4279 8.90625,23.9063 0.4089,5.2794 -1.17707,10.6638 -3.1875,15.5625 -2.06668,5.0357 -5.04145,9.8543 -8.90625,13.6875 -4.45,4.4136 -14.65126,3.9719 -15.84375,10.125 -5.06011,26.1095 58.49331,41.3269 46.3125,64.9687 -3.69268,7.1672 -17.07132,3.79 -24.1875,0 -20.80789,-11.082 -18.66086,-47.6055 -39.46875,-58.6875 -5.40609,-2.8792 -14.04397,-4.331 -18.375,0 -13.83278,13.8328 13.83278,44.8547 0,58.6875 -4.59619,4.5962 -14.90381,4.5962 -19.5,0 z m 19.5,-73.4062 c 1.5026,1.5026 4.2738,0.3172 6.375,0 10.15501,-1.5328 21.93328,-2.0824 29.4375,-9.0938 5.21162,-4.8694 7.27874,-12.848 7.6875,-19.9687 0.22197,-3.8667 -0.85288,-7.966 -2.90625,-11.25 -2.06836,-3.308 -5.34863,-5.9925 -8.90625,-7.5938 -5.92815,-2.6683 -12.82741,-2.2645 -19.3125,-2.7187 -4.11492,-0.2882 -9.45818,-2.9168 -12.375,0 -11.93243,11.9324 -11.93243,38.6926 0,50.625 z"
         style="font-size:192px;line-height:1.25;fill:url(#linearGradient16356)"
         id="path15979"
         sodipodi:nodetypes="aaaaaaaaaaaaaaaaaaaaaaa" />
      <path
         d="m 333.57428,1364.7188 c -6.91273,8.2436 -21.09299,6.8515 -31.78125,5.625 -13.4364,-1.5418 -28.03197,-6.0995 -37.3125,-15.9375 -9.18416,-9.7358 -12.73178,-24.4249 -13.59375,-37.7813 -0.59966,-9.2917 1.94965,-18.8972 6,-27.2812 3.59439,-7.4402 8.73375,-14.7072 15.65625,-19.2188 6.62453,-4.3174 14.99146,-6.8929 22.875,-6.2812 10.24968,0.7953 21.43015,4.8544 28.125,12.6562 8.53173,9.9423 8.84205,24.8792 10.5,37.875 0.23731,1.8602 1.24331,4.3101 -0.0937,5.625 -15.26204,15.0099 -43.66251,-8.563 -64.21875,0 -6.64912,2.7698 2.17819,14.5936 5.8125,20.8125 2.72042,4.6551 6.709,8.8468 11.4375,11.4375 5.47259,2.9984 12.05493,3.616 18.28125,4.0313 3.72358,0.2484 7.49183,-0.2312 11.15625,-0.9375 5.87244,-1.1318 12.34832,-8.8067 17.15625,-5.25 3.91917,2.8993 3.13234,10.8895 -5e-5,14.625 z m -63,-58.5938 c 20.45569,5.4866 35.83112,11.904 44.90625,0 4.57791,-6.0049 -1.04665,-16.1445 -6,-21.8437 -3.61773,-4.1625 -9.67261,-6.5562 -15.1875,-6.5625 -6.01958,-0.01 -12.51642,2.6966 -16.59375,7.125 -5.06705,5.5033 -14.35037,19.3432 -7.125,21.2812 z"
         style="font-size:192px;line-height:1.25;fill:url(#linearGradient16358)"
         id="path15981"
         sodipodi:nodetypes="aaaaaaaaaasaaaaaasaaaas" />
      <path
         d="m 431.26178,1368 c -4.50781,-4.5078 5.96581,-16.8778 0,-19.125 -6.69334,-2.5212 -8.08527,12.3434 -14.15625,16.125 -5.7974,3.6112 -12.97808,5.9499 -19.78125,5.3438 -10.70733,-0.9539 -22.20569,-5.5809 -29.15625,-13.7813 -8.12931,-9.5911 -10.34042,-23.7085 -10.3125,-36.2812 0.031,-13.955 2.72788,-29.4678 11.625,-40.2188 7.57372,-9.1519 20.07841,-14.085 31.78125,-16.125 3.72304,-0.649 7.60118,0.4222 11.25,1.4063 3.31205,0.8932 6.58099,2.1796 9.46875,4.0312 3.51971,2.2568 5.45759,10.129 9.28125,8.4375 17.63296,-7.8003 -13.63389,-44.2098 0,-57.8437 4.37522,-4.3752 15.45948,-5.3531 18.5625,0 26.89129,46.3913 27.89129,107.1399 0,148.0312 -3.48656,5.1116 -14.18728,4.3752 -18.5625,0 z m 0,-77.5312 c -2.85813,-5.4507 -9.49823,-8.1524 -15.1875,-10.5 -3.7568,-1.5502 -7.99343,-2.8375 -12,-2.1563 -7.57381,1.2877 -15.49355,5.1676 -20.0625,11.3438 -5.93865,8.0277 -6.45677,19.2644 -6.46875,29.25 -0.0107,8.9247 0.33348,19.0394 5.71875,26.1562 4.08302,5.3958 11.18044,8.8212 17.90625,9.5625 5.22255,0.5756 10.54076,-1.7663 15.1875,-4.2187 5.74674,-3.0329 12.16642,-6.6704 14.90625,-12.5625 6.58819,-14.1681 7.25611,-33.037 0,-46.875 z"
         style="font-size:192px;line-height:1.25;fill:url(#linearGradient16360)"
         id="path15983"
         sodipodi:nodetypes="aaaaaaaaaaaassaaaaaaaaaaa" />
      <path
         d="m 546.94928,1368 c -32.70369,-32.7037 -32.70369,-106.0463 0,-138.75 8.90513,-8.9051 25.2164,-0.8527 37.78125,0 9.69178,0.6578 20.0575,-0.1387 28.875,3.9375 5.48399,2.5351 10.42819,6.8914 13.5,12.0938 3.53821,5.9923 4.75808,13.3851 4.6875,20.3437 -0.0869,8.5717 -1.70255,17.6906 -6.28125,24.9375 -4.61205,7.2996 -12.15595,12.8236 -19.96875,16.5 -9.32761,4.3892 -20.11232,4.8394 -30.375,5.8125 -2.89327,0.2743 -6.66372,-2.055 -8.71875,0 -12.99309,12.9931 12.99309,42.1319 0,55.125 -4.59619,4.5962 -14.90381,4.5962 -19.5,0 z m 19.5,-70.0312 c 1.87825,1.8783 5.34367,0.4057 7.96875,0 9.71845,-1.502 20.95664,-2.1744 28.125,-8.9063 5.74056,-5.391 7.95431,-14.1773 8.53125,-22.0312 0.30047,-4.0904 -0.65757,-8.4542 -2.71875,-12 -1.9787,-3.4039 -5.16165,-6.2809 -8.71875,-7.9688 -6.42031,-3.0466 -14.00611,-2.5767 -21.09375,-3.0937 -4.02057,-0.2933 -9.24323,-2.8505 -12.09375,0 -12.72792,12.7279 -12.72792,41.2721 0,54 z"
         style="font-size:192px;line-height:1.25;fill:url(#linearGradient16362)"
         id="path15985"
         sodipodi:nodetypes="aaaaaaaaaaaaaaaaaaaaa" />
      <path
         d="m 653.63678,1368 c -17.92073,-38.7804 -7.31412,-108.5437 0,-148.0312 1.12123,-6.0533 17.53507,-6.085 18.46875,0 4.4857,29.2344 21.10271,109.2508 0,148.0312 -2.94253,5.4075 -15.8863,5.5884 -18.46875,0 z"
         style="font-size:192px;line-height:1.25;fill:url(#linearGradient16364)"
         id="path15987"
         sodipodi:nodetypes="sssss" />
      <path
         d="m 761.63678,1355.0625 c -6.47579,-1.4716 -10.26546,8.6925 -16.3125,11.4375 -4.89319,2.2212 -10.2893,4.1137 -15.65625,3.8438 -7.08775,-0.3564 -14.85197,-2.3069 -20.0625,-7.125 -5.57716,-5.1571 -9.5174,-13.2201 -9.28125,-20.8125 0.2894,-9.3046 5.59157,-19.0318 12.9375,-24.75 11.17891,-8.7018 27.2739,-8.1919 41.34375,-9.8438 1.42769,-0.1676 3.29603,1.0165 4.3125,0 2.89471,-2.8947 0.37557,-8.2047 0,-12.2812 -0.32951,-3.5766 -0.16709,-7.4866 -1.96875,-10.5938 -1.35681,-2.34 -3.74225,-4.0936 -6.1875,-5.25 -3.15849,-1.4936 -6.82301,-2.0497 -10.3125,-1.875 -10.8465,0.5429 -22.6372,15.533 -31.3125,9 -4.069,-3.0642 -3.19907,-11.3174 0,-15.2812 7.52958,-9.3296 23.16945,-7.3637 35.15625,-7.5938 5.58364,-0.1072 11.37166,0.6953 16.5,2.9063 4.61443,1.9895 9.34887,4.7909 12.09375,9 3.67715,5.6387 3.74524,12.9982 4.5,19.6875 1.72383,15.2781 -0.89575,30.7761 0,46.125 0.20347,3.4865 -0.16312,7.1988 1.21875,10.4062 0.69343,1.6095 1.89956,3.0856 3.375,4.0313 1.49985,0.9614 3.38053,1.2626 5.15625,1.4062 1.19018,0.096 2.62589,-1.1156 3.5625,-0.375 2.69378,2.1302 3.29408,7.4139 1.3125,10.2188 -2.73032,3.8647 -9.1505,3.2641 -13.875,3 -3.42377,-0.1914 -7.10863,-1.0945 -9.75,-3.2813 -3.5351,-2.9267 -2.27471,-10.983 -6.75,-12 z m -2.71875,-10.0312 c 4.24098,-7.6893 6.10999,-20.0368 0,-26.3438 -1.37054,-1.4147 -3.94587,-0.3793 -5.90625,-0.1875 -8.29891,0.812 -17.55309,0.8299 -24.375,5.625 -4.95709,3.4843 -9.32815,9.2441 -9.84375,15.2813 -0.34673,4.0598 1.87553,8.3935 4.78125,11.25 2.90922,2.8599 7.2796,4.2399 11.34375,4.5937 4.01171,0.3493 8.08329,-1.0117 11.8125,-2.5312 4.4481,-1.8124 9.86778,-3.4816 12.1875,-7.6875 z"
         style="font-size:192px;line-height:1.25;fill:url(#linearGradient16366)"
         id="path15989"
         sodipodi:nodetypes="aaaaaaaaaaaaaaaaaaaaaaaaaaaaaaaaaaaa" />
      <path
         d="m 815.16803,1368 c -17.98703,-27.8865 -9.01191,-70.2973 0,-101.8125 1.69256,-5.919 14.11562,-4.3531 18.46875,0 4.50781,4.5078 -5.86811,16.6338 0,19.125 6.95738,2.9536 9.77203,-11.9617 16.3125,-15.75 5.828,-3.3756 12.6784,-5.9354 19.40625,-5.625 7.51281,0.3466 15.77013,2.8453 21,8.25 5.58106,5.7677 6.69893,14.7783 8.0625,22.6875 4.14127,24.0206 17.23573,55.8893 0,73.125 -4.35313,4.3531 -14.11562,4.3531 -18.46875,0 -15.82151,-15.8215 1.49165,-44.7998 0,-67.125 -0.3132,-4.6875 0.22714,-9.7673 -1.875,-13.9687 -1.09755,-2.1936 -3.11558,-3.9476 -5.25,-5.1563 -2.16331,-1.225 -4.73283,-1.904 -7.21875,-1.875 -5.13351,0.06 -10.41823,1.5642 -14.8125,4.2188 -7.09471,4.2859 -14.07637,10.3046 -17.15625,18 -8.16296,20.3959 15.53424,50.372 0,65.9062 -4.35313,4.3531 -15.13184,5.1734 -18.46875,0 z"
         style="font-size:192px;line-height:1.25;fill:url(#linearGradient16368)"
         id="path15991"
         sodipodi:nodetypes="ssaaaaaaaaaaaaaaas" />
      <path
         d="m 1008.9493,1364.7188 c -6.9126,8.2437 -21.093,6.8515 -31.78127,5.625 -13.4364,-1.5418 -28.03197,-6.0995 -37.3125,-15.9375 -9.18416,-9.7358 -12.73178,-24.4249 -13.59375,-37.7813 -0.59966,-9.2917 1.94965,-18.8972 6,-27.2812 3.59439,-7.4402 8.73375,-14.7072 15.65625,-19.2188 6.62453,-4.3174 14.99146,-6.8929 22.875,-6.2812 10.24968,0.7953 21.43015,4.8544 28.125,12.6562 8.53177,9.9423 8.84237,24.8791 10.49997,37.875 0.2373,1.8602 1.243,4.3101 -0.094,5.625 -15.26244,15.0095 -50.9236,-3.0543 -64.21877,0 -7.02011,1.6127 2.17819,14.5936 5.8125,20.8125 2.72042,4.6551 6.709,8.8468 11.4375,11.4375 5.47259,2.9984 12.05493,3.616 18.28125,4.0313 3.72358,0.2484 7.49183,-0.2312 11.15625,-0.9375 5.87245,-1.1318 12.34827,-8.8067 17.15627,-5.25 3.9192,2.8992 3.1326,10.8895 3e-4,14.625 z m -63.00002,-58.5938 c 12.04487,5.7455 35.83112,11.904 44.90625,0 4.57791,-6.0049 -1.04665,-16.1445 -6,-21.8437 -3.61773,-4.1625 -9.67261,-6.5562 -15.1875,-6.5625 -6.01958,-0.01 -12.51642,2.6966 -16.59375,7.125 -5.06705,5.5033 -13.87694,18.0605 -7.125,21.2812 z"
         style="font-size:192px;line-height:1.25;fill:url(#linearGradient16370)"
         id="path15993"
         sodipodi:nodetypes="aaaaaaaaaasaaaaaasaaaas" />
      <path
         d="m 1086.668,1368 c -3.2468,3.801 -9.8362,2.8191 -14.8125,2.3438 -7.6757,-0.7332 -16.3104,-2.4102 -21.75,-7.875 -5.6412,-5.6674 -6.6988,-14.7145 -8.0625,-22.5938 -3.4002,-19.6454 4.9056,-41.5999 0,-59.8125 -1.1053,-4.1037 -9.7448,3.0052 -12.75,0 -3.2704,-3.2704 -3.2704,-10.6046 0,-13.875 3.0052,-3.0052 9.7448,3.0052 12.75,0 4.3531,-4.3531 -4.1389,-13.9114 0,-18.4687 4.1581,-4.5785 13.8903,-5.9394 18.4688,-1.7813 4.9968,4.5381 -4.773,15.477 0,20.25 6.2756,6.2756 20.3494,-6.2756 26.625,0 3.2704,3.2704 3.2704,10.6046 0,13.875 -6.2756,6.2756 -23.752,-8.3971 -26.625,0 -6.2314,18.2126 -2.4585,37.7863 0,56.4375 0.6934,5.2607 0.5154,11.4857 4.125,15.375 3.1532,3.3975 8.5131,4.1295 13.125,4.5938 2.9813,0.3001 6.6484,-3.1887 8.9062,-1.2188 3.2025,2.7941 2.7604,9.5185 0,12.75 z"
         style="font-size:192px;line-height:1.25;fill:url(#linearGradient16372)"
         id="path15995"
         sodipodi:nodetypes="aaaasaaaaaaaasaaaaa" />
      <path
         d="m 136.39558,1518.1562 c -28.38869,-28.3887 -28.38869,-92.0543 0,-120.443 8.59333,-8.5933 24.4558,-1.9047 36.45841,0 9.69247,1.5381 20.91176,2.322 27.99485,9.1146 5.32781,5.1093 7.16111,13.3923 7.73114,20.752 0.35495,4.5828 -1.02176,9.2568 -2.76694,13.5092 -1.79399,4.3713 -4.37627,8.5541 -7.73113,11.8815 -3.86286,3.8313 -12.71814,3.4479 -13.75329,8.7891 -4.39247,22.6645 50.77556,35.8741 40.20191,56.3966 -3.20546,6.2215 -14.81889,3.2899 -20.99614,0 -18.06244,-9.6198 -16.1987,-41.3243 -34.26114,-50.9441 -4.6928,-2.4993 -12.19097,-3.7596 -15.95055,0 -12.00764,12.0076 12.00764,38.9365 0,50.9441 -3.98976,3.9898 -12.93736,3.9898 -16.92712,0 z m 16.92712,-63.7209 c 1.30435,1.3043 3.70991,0.2753 5.53387,0 8.81513,-1.3306 19.03933,-1.8076 25.55343,-7.8939 4.52399,-4.2269 6.31838,-11.1528 6.6732,-17.334 0.19268,-3.3565 -0.74036,-6.9149 -2.5228,-9.7656 -1.79546,-2.8715 -4.64293,-5.2018 -7.73113,-6.5918 -5.14598,-2.3162 -11.13493,-1.9658 -16.76436,-2.3601 -3.57198,-0.2502 -8.21025,-2.532 -10.74221,0 -10.35803,10.358 -10.35803,33.5874 0,43.9454 z"
         style="font-size:166.667px;line-height:0.45;fill:url(#linearGradient16374)"
         id="path15997"
         sodipodi:nodetypes="aaaaaaaaaaaaaaaaaaaaaaa" />
      <path
         d="m 307.05023,1515.3079 c -6.00063,7.1559 -18.30992,5.9475 -27.58794,4.8828 -11.66357,-1.3384 -24.33336,-5.2948 -32.38939,-13.8347 -7.97237,-8.4512 -11.05191,-21.2022 -11.80016,-32.7963 -0.52054,-8.0658 1.6924,-16.4039 5.20835,-23.6817 3.12014,-6.4584 7.58141,-12.7666 13.59052,-16.6829 5.75048,-3.7478 13.01344,-5.9835 19.85681,-5.4525 8.89731,0.6903 18.6026,4.2139 24.41411,10.9863 7.40604,8.6305 7.67548,21.5965 9.1146,32.8777 0.20599,1.6147 1.0792,3.7414 -0.0814,4.8828 -13.2484,13.0294 -37.64991,-4.266 -55.74553,0 -6.08578,1.4347 1.89078,12.6681 5.04558,18.0665 2.36148,4.0409 5.8238,7.6796 9.92841,9.9284 4.75053,2.6027 10.46438,3.1388 15.86917,3.4993 3.23228,0.2156 6.50334,-0.2007 9.68426,-0.8138 5.09762,-0.9825 10.71905,-7.6447 14.89261,-4.5573 3.40208,2.5167 2.71911,9.4528 0,12.6954 z m -54.68761,-50.8628 c 13.534,3.7808 31.10346,10.3334 38.9812,0 3.97389,-5.2126 -0.90854,-14.0144 -5.20834,-18.9616 -3.1404,-3.6132 -8.39638,-5.6911 -13.18362,-5.6966 -5.22534,-0.01 -10.86497,2.3408 -14.40433,6.1849 -4.39849,4.7772 -12.43918,16.7261 -6.18491,18.4733 z"
         style="font-size:166.667px;line-height:0.45;fill:url(#linearGradient16376)"
         id="path15999"
         sodipodi:nodetypes="aaaaaaaaaasaaaaaasaaaas" />
      <path
         d="m 335.12647,1518.1562 c -9.11183,-27.7023 -9.83115,-60.5334 0,-88.3791 1.77911,-5.0391 12.25317,-3.7788 16.03193,0 3.91303,3.913 -5.09386,14.4391 0,16.6016 6.0394,2.5639 8.48267,-10.3835 14.16018,-13.6719 5.05904,-2.9302 11.00558,-5.1522 16.84574,-4.8828 6.52155,0.3009 13.68939,2.4698 18.22921,7.1614 4.8447,5.0067 5.81505,12.8285 6.99871,19.6941 3.59485,20.8513 14.9616,48.5151 0,63.4767 -3.77876,3.7788 -12.25318,3.7788 -16.03194,0 -13.73399,-13.734 1.29483,-38.8888 0,-58.2684 -0.27187,-4.0691 0.1972,-8.4786 -1.6276,-12.1257 -0.95274,-1.9042 -2.70451,-3.4267 -4.5573,-4.4759 -1.87788,-1.0634 -4.10836,-1.6528 -6.26629,-1.6276 -4.45617,0.052 -9.04362,1.3578 -12.8581,3.6621 -6.15863,3.7204 -12.2191,8.9451 -14.89261,15.6251 -7.0859,17.7048 13.48462,43.7258 0,57.2104 -3.77876,3.7788 -14.36219,5.0764 -16.03193,0 z"
         style="font-size:166.667px;line-height:0.45;fill:url(#linearGradient16378)"
         id="path16001"
         sodipodi:nodetypes="ssaaaaaaaaaaaaaaas" />
      <path
         d="m 495.28305,1518.1562 c -3.91303,-3.913 5.17867,-14.6509 0,-16.6016 -5.81019,-2.1885 -7.01848,10.7148 -12.28844,13.9974 -5.03248,3.1347 -11.26572,5.1648 -17.17126,4.6387 -9.29457,-0.828 -19.27581,-4.8445 -25.30929,-11.9629 -7.05672,-8.3256 -8.97608,-20.5803 -8.95184,-31.4942 0.0269,-12.1138 2.36795,-25.5797 10.09116,-34.9122 6.57443,-7.9444 17.42922,-12.2265 27.58795,-13.9974 3.23181,-0.5634 6.59826,0.3665 9.76564,1.2207 2.87505,0.7754 5.71268,1.892 8.21942,3.4993 3.05531,1.959 4.73751,8.7925 8.05666,7.3242 15.3064,-6.7711 -11.83499,-38.3766 0,-50.2116 3.79794,-3.7979 13.58994,-4.7414 16.11331,0 20.28765,38.1205 25.06515,83.9031 0,128.4996 -2.6316,4.6822 -12.31537,3.7979 -16.11331,0 z m 0,-67.3016 c -2.48102,-4.7315 -8.24501,-7.0768 -13.18362,-9.1146 -3.26112,-1.3456 -6.93876,-2.4631 -10.41669,-1.8718 -6.5745,1.1178 -13.4493,4.4858 -17.4154,9.8471 -5.15508,6.9685 -5.60484,16.7226 -5.61524,25.3907 -0.009,7.7471 0.28948,16.5273 4.9642,22.7051 3.54429,4.6839 9.70526,7.6573 15.54365,8.3008 4.53348,0.4997 9.14998,-1.5333 13.18362,-3.6621 4.9885,-2.6328 10.56115,-5.7903 12.93948,-10.905 5.71892,-12.2988 6.29872,-28.678 0,-40.6902 z"
         style="font-size:166.667px;line-height:0.45;fill:url(#linearGradient16380)"
         id="path16003"
         sodipodi:nodetypes="aaaaaaaaaaaassaaaaaaaaaaa" />
      <path
         d="m 608.239,1515.3079 c -6.00063,7.156 -18.30993,5.9475 -27.58795,4.8828 -11.66357,-1.3384 -24.33336,-5.2948 -32.38939,-13.8347 -7.97237,-8.4513 -11.0519,-21.2022 -11.80015,-32.7963 -0.52054,-8.0658 1.69239,-16.4039 5.20834,-23.6817 3.12014,-6.4585 7.58142,-12.7666 13.59053,-16.6829 5.75048,-3.7478 13.01344,-5.9835 19.85681,-5.4525 8.89731,0.6903 18.6026,4.2139 24.41411,10.9863 7.40604,8.6305 7.67548,21.5965 9.1146,32.8777 0.20599,1.6147 1.0792,3.7414 -0.0814,4.8828 -13.24841,13.0294 -44.1129,-5.2679 -55.74556,0 -5.6958,2.5794 1.89079,12.6681 5.04559,18.0665 2.36148,4.0409 5.82379,7.6796 9.9284,9.9284 4.75053,2.6027 10.46438,3.1388 15.86918,3.4993 3.23228,0.2156 6.50334,-0.2007 9.68426,-0.8138 5.09762,-0.9825 10.71904,-7.6447 14.89261,-4.5573 3.40209,2.5167 2.71912,9.4528 2e-5,12.6954 z m -54.68761,-50.8628 c 13.12657,1.5783 31.10346,10.3334 38.9812,0 3.97389,-5.2126 -0.90855,-14.0144 -5.20835,-18.9616 -3.1404,-3.6132 -8.39638,-5.6911 -13.18362,-5.6966 -5.22533,-0.01 -10.86496,2.3408 -14.40432,6.1849 -4.39849,4.7772 -12.63219,17.6981 -6.18491,18.4733 z"
         style="font-size:166.667px;line-height:0.45;fill:url(#linearGradient16382)"
         id="path16005"
         sodipodi:nodetypes="aaaaaaaaaasaaaaaasaaaas" />
      <path
         d="m 630.29308,1518.1562 c -2.83887,-2.8389 -1.38582,-8.2763 0,-12.0443 9.71151,-26.4054 54.28696,-41.252 54.68762,-64.2905 0.30236,-17.3856 -39.86945,12.2954 -52.16482,0 -2.83887,-2.8389 -2.74846,-9.1178 0,-12.0443 14.97583,-15.9458 47.01432,-15.8137 65.49798,-4.1133 4.89914,3.1012 6.07646,12.1595 6.44227,16.1576 3.78849,41.4054 -50.58177,36.4404 -54.68761,64.2905 -2.71016,18.3831 42.6062,-13.1394 55.74555,0 2.83887,2.8389 2.83887,9.2054 0,12.0443 -17.80047,17.8005 -57.72052,17.8005 -75.52099,0 z"
         style="font-size:166.667px;line-height:0.45;fill:url(#linearGradient16384)"
         id="path16007"
         sodipodi:nodetypes="aasaaassaaa" />
      <path
         d="m 750.16637,1518.1562 c -25.81134,-17.9375 -43.31516,-60.5334 -32.87767,-88.3791 1.87568,-5.004 11.64097,-3.0459 16.03194,0 20.10826,13.9486 1.24461,68.5519 25.71619,68.7664 24.6369,0.216 6.73325,-54.9016 27.09967,-68.7664 4.12599,-2.8088 13.59431,-4.7968 14.97399,0 8.00907,27.8457 -8.72137,70.5649 -34.91218,88.3791 -4.41873,3.0055 -11.64359,3.0497 -16.03194,0 z"
         style="font-size:166.667px;line-height:0.45;fill:url(#linearGradient16386)"
         id="path16009"
         sodipodi:nodetypes="asaaasaa" />
      <path
         d="m 853.2753,1520.1907 c -7.52087,0.04 -15.49205,-1.3104 -21.97271,-5.127 -6.30511,-3.7132 -11.3775,-9.7719 -14.72984,-16.2761 -3.88089,-7.5296 -5.40599,-16.3502 -5.45249,-24.821 -0.0446,-8.1184 2.04673,-16.2682 4.9642,-23.8444 2.65959,-6.9066 5.62337,-14.3179 11.22235,-19.1579 5.9108,-5.1095 13.94682,-8.0681 21.72585,-8.7972 9.4718,-0.8876 20.19941,0.1404 27.98311,5.61 6.83522,4.8031 9.86144,13.6925 12.96207,21.4499 3.13417,7.8413 5.40836,16.2953 5.45249,24.7396 0.0429,8.2037 -1.38915,16.7447 -5.04558,24.0886 -3.27336,6.5745 -8.2116,12.784 -14.48571,16.6016 -6.63229,4.0356 -14.86028,5.4925 -22.62374,5.5339 z m 0.35355,-16.994 c 6.20619,-0.021 13.91095,0.5638 18.20117,-3.9208 5.67731,-5.9345 4.07891,-16.0793 4.11694,-24.292 0.041,-8.8595 1.09883,-19.1436 -4.19832,-26.2452 -4.08418,-5.4755 -11.64245,-8.8705 -18.47334,-8.8705 -6.8309,0 -14.2654,3.4896 -18.47335,8.8705 -5.24225,6.7035 -5.15975,16.4893 -5.1776,24.9992 -0.0182,8.6858 -0.94796,19.3799 5.1776,25.538 4.52074,4.5447 12.41667,3.9427 18.8269,3.9208 z"
         style="font-size:166.667px;line-height:0.45;fill:url(#linearGradient16388)"
         id="path16011"
         sodipodi:nodetypes="aaaaaaaaaaaaaaaaaaaaaa" />
      <path
         d="m 975.75277,1518.1562 c -3.91303,-3.913 5.09715,-14.4469 0,-16.6016 -6.09601,-2.577 -8.51433,10.5179 -14.24156,13.8346 -5.03018,2.9131 -10.95764,5.0674 -16.76436,4.8015 -6.5118,-0.2982 -13.69323,-2.3985 -18.2292,-7.0801 -4.88348,-5.0403 -5.81532,-12.9393 -6.99872,-19.8568 -3.56787,-20.8559 -14.9616,-48.5151 0,-63.4767 3.77876,-3.7788 12.25318,-3.7788 16.03194,0 13.73397,13.734 -1.29483,38.8887 0,58.2683 0.27187,4.0691 -0.18074,8.4704 1.62761,12.1257 0.95262,1.9256 2.69102,3.4932 4.5573,4.5573 1.89756,1.0819 4.16357,1.6602 6.34767,1.6276 4.40383,-0.066 8.92623,-1.3835 12.69533,-3.6621 6.17344,-3.7321 12.2844,-8.9313 14.97399,-15.625 7.12014,-17.7203 -13.50381,-43.788 0,-57.2918 3.77876,-3.7788 12.25318,-3.7788 16.03194,0 20.83119,20.8312 20.83119,67.5479 0,88.3791 -3.77876,3.7788 -12.25318,3.7788 -16.03194,0 z"
         style="font-size:166.667px;line-height:0.45;fill:url(#linearGradient16390)"
         id="path16013"
         sodipodi:nodetypes="aaaaaaaaaaaaaaaaaa" />
      <path
         d="m 1020.6747,1515.0637 c -3.1273,-3.7852 -3.9198,-11.7731 0,-14.7298 7.5678,-5.7084 17.8663,7.9981 27.3438,7.8125 3.9967,-0.078 8.3723,-1.1255 11.3933,-3.7435 2.6312,-2.2802 4.3979,-5.8854 4.6387,-9.3588 0.1661,-2.3961 -0.6582,-5.063 -2.2787,-6.8359 -2.3919,-2.6169 -6.4521,-2.9482 -9.748,-4.2546 -3.9024,-1.5468 -8.1263,-2.3168 -11.8588,-4.2376 -6.0593,-3.1181 -12.7181,-6.2008 -16.7878,-11.6667 -3.1745,-4.2635 -5.5238,-9.8683 -4.9642,-15.1543 0.7307,-6.9019 5.0487,-13.6715 10.4812,-17.991 6.2458,-4.9662 14.924,-6.3247 22.8678,-7.08 6.1135,-0.5813 12.24,1.1066 18.3106,2.0345 1.1202,0.1712 2.6161,-0.2236 3.3366,0.651 2.8286,3.4338 3.4218,10.5033 0,13.3464 -5.5818,4.6378 -14.1544,-4.3391 -21.403,-3.9877 -4.0046,0.1941 -8.4904,0.7527 -11.556,3.3366 -2.2357,1.8844 -3.7279,4.9716 -3.8249,7.8939 -0.077,2.3109 0.9699,4.7935 2.6042,6.4291 3.462,3.4649 9.0883,3.6563 13.6146,5.528 2.5839,1.0685 5.3575,1.7773 7.7311,3.2552 5.7258,3.5652 11.6098,7.6089 15.2754,13.2709 2.649,4.0917 4.2198,9.123 4.2318,13.9974 0.012,4.6691 -1.4182,9.5292 -3.9876,13.4278 -2.7771,4.2138 -7.0889,7.4982 -11.6374,9.6842 -5.241,2.5188 -11.2752,3.4639 -17.0899,3.4994 -9.0601,0.055 -20.922,1.8577 -26.6928,-5.127 z"
         style="font-size:166.667px;line-height:0.45;fill:url(#linearGradient16392)"
         id="path16015"
         sodipodi:nodetypes="aaaaaaaaaaaaaaaaaaaaaaaaaaa" />
    </g>
  </g>
</svg>
